<svg version="1.2" xmlns="http://www.w3.org/2000/svg" viewBox="0 0 983 499" width="983" height="499"><defs><linearGradient id="P" gradientUnits="userSpaceOnUse"/><linearGradient id="g1" x1="621.7" y1="38.4" x2="630.9" y2="250.2" href="#P"><stop stop-color="#eb008b"/><stop offset="1" stop-color="#262261"/></linearGradient></defs><style>.a{fill:url(#g1)}.b{fill:#3c3a3c}</style><path fill-rule="evenodd" class="a" d="m577 264.5c-23 20.2-53.2 32.4-86.2 32.4-72.3 0-130.9-58.5-130.9-130.8 0-72.2 58.6-130.8 130.9-130.8 72.2 0 130.8 58.6 130.8 130.8 0 30.6-10.5 58.8-28.1 81.1v-55.7h-0.1q0.1-1.6 0.1-3.2c0-20.3-8-39.4-22.3-53.8-7.7-7.7-16.7-13.5-26.5-17.3q-5-1.9-10.4-3.1c-5.5-1.3-11.2-1.9-17-1.9q-1.7 0-3.3 0.1-5 0.2-9.8 1c-15.3 2.6-29.5 9.9-40.7 21.2-14.4 14.4-22.3 33.5-22.3 53.8q0 0.2 0 0.4c5.3 2.7 11.2 4.6 17.4 5.2q-0.3-2.7-0.3-5.6c0-30.9 23.9-56.3 54.2-58.7q2.4-0.2 4.8-0.2 2.1 0 4.1 0.1c6.5 0.4 12.6 1.9 18.3 4.3q4.8 2 9.1 4.7 0 0 0 0 0.1 0.1 0.2 0.1c16.4 10.5 27.3 28.9 27.3 49.7 0 32.5-26.5 59-59 59-17.2 0-32.7-7.4-43.5-19.2q-4.7 0.5-9.6 0.5-6.1 0-12.1-0.8c3.2 5.1 7 10 11.4 14.4 14.4 14.3 33.5 22.3 53.8 22.3 20.4 0 39.5-8 53.9-22.3q2.7-2.8 5.1-5.7v28zm-29.6-35.9h1.5v-1.1q-0.7 0.6-1.5 1.1zm-100.2-10.5c5.5 1.3 11.2 1.9 17 1.9q1.7 0 3.3 0 5-0.3 9.8-1.1c15.3-2.6 29.5-9.9 40.7-21.2q2.8-2.7 5.2-5.6v28h17.1v-73q0-1.6 0-3.2 0-0.2 0-0.4c-5.3-2.7-11.2-4.5-17.4-5.2q0.3 2.7 0.3 5.6c0 30.9-23.9 56.3-54.2 58.8q-2.4 0.1-4.8 0.1-2.1 0-4.1-0.1c-6.5-0.4-12.6-1.9-18.3-4.3q-4.8-1.9-9.1-4.7c-16.5-10.4-27.5-28.9-27.5-49.8 0-32.5 26.5-59 59-59 17.2 0 32.7 7.4 43.5 19.2q4.7-0.5 9.6-0.5 6.1 0 12.1 0.8c-3.2-5.1-7-10-11.4-14.4-14.3-14.3-33.5-22.3-53.8-22.3-20.3 0-39.5 8-53.8 22.3-14.4 14.4-22.4 33.5-22.4 53.9 0 20.3 8 39.4 22.4 53.8 7.6 7.7 16.6 13.5 26.4 17.3q5 1.9 10.4 3.1z"/><path class="b" d="m136 358.4h22.9v116h-22.9z"/><path class="b" d="m186 358.4h20.5l58 77.9-0.2-33v-44.9h22.9v116h-20.7l-58-77.7 0.4 34.4v43.3h-22.9z"/><path class="b" d="m314.2 358.4h83.6v20.6h-60.8v32.1h57.7v20h-57.7v43.3h-22.8z"/><path fill-rule="evenodd" class="b" d="m440.6 469.5q-13.8-7.6-21.4-21.3-7.6-13.8-7.6-31.8 0-18.1 7.6-31.8 7.6-13.8 21.4-21.3 13.8-7.5 32.1-7.5 18 0 31.8 7.5 13.9 7.5 21.5 21.3 7.6 13.7 7.6 31.8 0 18-7.6 31.8-7.6 13.7-21.5 21.3-13.8 7.5-31.8 7.5-18.3 0-32.1-7.5zm-1.1-32.3q4.7 9 13.3 14 8.6 4.9 19.9 4.9 11.1 0 19.7-4.9 8.6-5 13.3-14 4.7-9.1 4.7-20.8 0-11.8-4.7-20.8-4.7-9-13.3-14-8.6-5-19.7-5-11.3 0-19.9 5-8.6 5-13.3 14-4.8 9-4.8 20.8 0 11.7 4.8 20.8z"/><path class="b" d="m540.4 358.4h96.2v20.6h-36.6v95.4h-23v-95.4h-36.6z"/><path class="b" d="m652.8 358.4h86.7v19.9h-64.1v27.7h61.1v19.3h-61.1v29h65.5v20.1h-88.1z"/><path class="b" d="m785.7 425v49.4h-22.9v-116h22.9v47.9l42.4-47.9h29.1l-51 56.5 55.8 59.5h-30.6z"/></svg>