<svg version="1.2" xmlns="http://www.w3.org/2000/svg" viewBox="0 0 1428 1000" width="1428" height="1000"><defs><linearGradient id="P" gradientUnits="userSpaceOnUse"/><linearGradient id="g1" x1="1562.2" y1="-188.4" x2="1685.4" y2="873.2" href="#P"><stop stop-color="#2b52a3"/><stop offset=".5" stop-color="#d30f88"/><stop offset="1" stop-color="#d42027"/></linearGradient></defs><style>.a{fill:#231f20}.b{fill:url(#g1)}</style><path fill-rule="evenodd" class="a" d="m565.2 273.8l-14.7-37.1h-82.6l-14.7 37.1h-23.6l66.9-165.9h25.7l66.6 165.9zm-55.9-144.7l-35.2 89.5h70.6zm98.5 144.9v-166.1h20.7v147.7h77.1v18.4zm125.5 0v-166.1h74c28.8 0 46.6 17.4 46.6 42.4 0 20.9-14 34.9-29.2 38.2 17.6 2.6 32.4 20.8 32.4 40.7 0 26.7-17.7 44.8-48.1 44.8zm99-120.7c0-14.9-9.8-26.9-28.6-26.9h-49.7v53.4h49.7c18.8 0 28.6-11.3 28.6-26.5zm3.3 73.6c0-15.1-10.5-28.6-30.5-28.6h-51.1v57.3h51.1c19.1 0 30.5-10.9 30.5-28.7zm172.7 47.1l-14.6-37h-82.7l-14.7 37h-23.6l67-166.1h25.7l66.7 166.1zm-56-144.9l-35.2 89.7h70.5zm-522.7 378.4v-166.2h20.5v147.7h77.3v18.5zm125.4-166.2h20.7v166.2h-20.7zm59.5 166v-166h108.7v18.3h-88v53.6h86.3v18.3h-86.3v75.8zm137.2 0v-166h108.7v18.3h-88.2v53.6h86.5v18.3h-86.5v57.3h88.2v18.5zm-322.1 209.9l12.4-15.8c10.7 12.4 28.6 23.8 52.1 23.8 29.7 0 39-15.9 39-28.8 0-43-98.3-19-98.3-78.2 0-27.4 24.5-46.4 57.2-46.4 25.2 0 44.9 8.8 58.9 23.5l-12.4 15.1c-12.5-13.9-29.9-20-48.2-20-19.7 0-34 10.7-34 26.4 0 37.5 98.2 16.1 98.2 78 0 24-16.4 48.8-61.1 48.8-28.6 0-50.2-11-63.8-26.4zm149-59.5c0-51.1 37.7-85.9 85.5-85.9 29.5 0 49.8 14 62.9 32.9l-17.1 9.7c-9.4-14.1-26.9-24.2-45.8-24.2-36.3 0-63.9 27.7-63.9 67.5 0 39.3 27.6 67.5 63.9 67.5 18.9 0 36.4-10.2 45.8-24.2l17.5 9.5c-14 19.1-33.8 33.1-63.3 33.1-47.8 0-85.5-34.8-85.5-85.9zm175.2-83.2h20.7v166h-20.7zm59.5 166.2v-166.2h108.7v18.5h-88.2v53.6h86.5v18.3h-86.5v57.3h88.2v18.5zm259.1 0l-96.8-132.5v132.5h-20.7v-166.2h21.2l95.6 129.8v-129.8h20.7v166.2zm52-83c0-50.9 37.6-85.8 85.4-85.8 29.3 0 49.8 13.8 62.9 32.8l-17 9.7c-9.5-14.2-27-24.2-45.9-24.2-36.4 0-64 27.8-64 67.5 0 39.3 27.6 67.4 64 67.4 18.9 0 36.4-10.1 45.9-23.9l17.4 9.3c-14 19.1-34 33.1-63.3 33.1-47.8 0-85.4-34.9-85.4-85.9zm175.1 83v-166.2h108.7v18.5h-88.2v53.6h86.4v18.3h-86.4v57.3h88.2v18.5z"/><path fill-rule="evenodd" class="b" d="m137.2 318c-13.8 0-24.9-11.1-24.9-24.8 0-13.8 11.1-24.9 24.9-24.9 13.7 0 24.8 11.1 24.8 24.9 0 13.7-11.1 24.8-24.8 24.8zm0 416.1c-13.8 0-24.9-11-24.9-24.7 0-13.7 11.1-24.8 24.9-24.8 13.7 0 24.8 11.1 24.8 24.8 0 13.7-11.1 24.7-24.8 24.7zm-51.4-351.4c-14.7 0-26.6-12-26.6-26.7 0-14.8 11.9-26.8 26.6-26.8 14.8 0 26.7 12 26.7 26.8 0 14.7-11.9 26.7-26.7 26.7zm-37.1 77.5c-17.8 0-32.1-14.4-32.1-32.2 0-17.8 14.3-32.2 32.1-32.2 17.8 0 32.2 14.4 32.2 32.2 0 17.8-14.4 32.2-32.2 32.2zm-14.9 81c-18.7 0-33.8-15.1-33.8-33.8 0-18.7 15.1-33.8 33.8-33.8 18.7 0 33.8 15.1 33.8 33.8 0 18.7-15.1 33.8-33.8 33.8zm13.8 77.9c-17.6 0-31.9-14.3-31.9-32 0-17.7 14.3-32 31.9-32 17.7 0 31.9 14.3 31.9 32 0 17.7-14.2 32-31.9 32zm38.5 65.5c-14.5 0-26.2-11.7-26.2-26.2 0-14.5 11.7-26.2 26.2-26.2 14.5 0 26.2 11.7 26.2 26.2 0 14.5-11.7 26.2-26.2 26.2zm128.4-366.6c-13.7 0-24.7-11.1-24.7-24.8 0-13.8 11-24.9 24.7-24.9 13.7 0 24.8 11.1 24.8 24.9 0 13.7-11.1 24.8-24.8 24.8zm-39.1-60.9c-13.7 0-24.8-11.1-24.8-24.8 0-13.8 11.1-24.9 24.8-24.9 13.7 0 24.7 11.1 24.7 24.9 0 13.7-11 24.8-24.7 24.8zm39.1 477c-13.7 0-24.7-11-24.7-24.7 0-13.7 11-24.8 24.7-24.8 13.7 0 24.8 11.1 24.8 24.8 0 13.7-11.1 24.7-24.8 24.7zm51.5-351.4c-14.8 0-26.7-12-26.7-26.7 0-14.8 11.9-26.8 26.7-26.8 14.7 0 26.6 12 26.6 26.8 0 14.7-11.9 26.7-26.6 26.7zm37 77.5c-17.7 0-32.1-14.4-32.1-32.2 0-17.8 14.4-32.2 32.1-32.2 17.8 0 32.2 14.4 32.2 32.2 0 17.8-14.4 32.2-32.2 32.2zm14.9 81c-18.8 0-33.9-15.1-33.9-33.8 0-18.7 15.1-33.8 33.9-33.8 18.7 0 33.9 15.1 33.9 33.8 0 18.7-15.2 33.8-33.9 33.8zm-13.7 77.9c-17.7 0-32-14.3-32-32 0-17.7 14.3-32 32-32 17.6 0 31.9 14.3 31.9 32 0 17.7-14.3 32-31.9 32zm-38.5 65.5c-14.5 0-26.2-11.7-26.2-26.2 0-14.5 11.7-26.2 26.2-26.2 14.5 0 26.2 11.7 26.2 26.2 0 14.5-11.7 26.2-26.2 26.2zm-124.9-312.1h-3.5l-2.2-5.3h-12.1l-2.1 5.3h-3.4l9.8-24.1h3.6zm-6.3-8.1l-5.2-13.2-5.2 13.2zm33 8.1h-14.4v-24.2h3.2v21.4h11.2zm13.4-24.2h10.7c4.3 0 6.9 2.6 6.9 6.3 0 2.9-2 5-4.3 5.5 2.6 0.3 4.7 3.1 4.7 5.8 0 4-2.6 6.6-6.9 6.6h-11.1zm3 10.5h7.2c2.8 0 4.3-1.7 4.3-3.9 0-2.1-1.5-3.8-4.3-3.8h-7.2zm0 11h7.4c2.9 0 4.5-1.7 4.5-4.1 0-2.3-1.6-4.3-4.5-4.3h-7.4zm50 2.7h-3.5l-2.2-5.3h-12.1l-2.1 5.3h-3.4l9.8-24.1h3.7zm-6.4-8.2l-5.2-13.1-5.2 13.1zm-86.2 82.5h-3.5l-2.1-5.3h-12l-2.3 5.3h-3.4l9.8-24.1h3.8zm-6.6-8.1l-5.1-13-5 13zm32.7 8.1h-14.1v-24.2h2.9v21.6h11.2zm13.5-24.4h10.9c4.1 0 6.7 2.6 6.7 6.3 0 3.1-2.1 5.1-4.3 5.5 2.6 0.5 4.8 3.1 4.8 6 0 3.8-2.6 6.6-7.1 6.6h-11zm3.1 10.3h7.2c2.6 0 4.2-1.5 4.2-3.8 0-2.2-1.6-3.9-4.2-3.9h-7.2zm0 11h7.4c2.8 0 4.5-1.5 4.5-4.1 0-2.3-1.5-4.2-4.5-4.2h-7.4zm49.9 2.6h-3.5l-2.1-5.3h-12l-2.3 5.3h-3.4l9.8-24.1h3.8zm-6.6-8.2l-5.1-12.9-5 12.9zm-86.5 82.7h-3.4l-2.1-5.5h-12.1l-2 5.5h-3.5l9.7-24.3h3.8zm-6.6-8l-5-13.1-5.2 13.1zm33 8h-14.3v-24.2h2.9v21.6h11.4zm13.3-24.2h10.8c4.2 0 6.8 2.4 6.8 6.1 0 3.1-2.1 5.1-4.2 5.7 2.6 0.3 4.7 2.9 4.7 5.8 0 4-2.6 6.6-7.1 6.6h-11zm3.1 10.5h7.2c2.8 0 4.2-1.7 4.2-4 0-2-1.4-3.9-4.2-3.9h-7.2zm0 11h7.4c2.8 0 4.5-1.5 4.5-4.1 0-2.3-1.6-4.2-4.5-4.2h-7.4zm49.8 2.8h-3.4l-2.1-5.5h-12.1l-2 5.5h-3.5l9.7-24.3h3.8zm-6.4-8l-5.2-13.1-5.2 13.1zm-86.2 82.5h-3.5l-2.2-5.4h-12.1l-2.1 5.4h-3.4l9.8-24.2h3.6zm-6.3-8.1l-5.2-13.1-5.2 13.1zm33 8.1h-14.4v-24.1h3.1v21.4h11.3zm13.4-24.2h10.7c4.3 0 6.9 2.6 6.9 6.2 0 3-2.1 5-4.3 5.6 2.6 0.3 4.7 3.1 4.7 5.8 0 4-2.6 6.6-6.9 6.6h-11.1zm2.9 10.5h7.3c2.8 0 4.1-1.7 4.1-3.8 0-2.2-1.3-4-4.1-4h-7.3zm0 11.1h7.5c2.9 0 4.5-1.7 4.5-4.2 0-2.2-1.6-4.3-4.5-4.3h-7.5zm50.1 2.8h-3.5l-2.2-5.4h-12.1l-2.1 5.4h-3.4l9.8-24.2h3.6zm-6.3-8.1l-5.2-13.1-5.2 13.1zm-90 269.9c-13.8 0-24.9-11.2-24.9-24.9 0-13.7 11.1-24.8 24.9-24.8 13.7 0 24.8 11.1 24.8 24.8 0 13.7-11.1 24.9-24.8 24.9zm-51.5 64.7c-14.7 0-26.7-12-26.7-26.8 0-14.8 12-26.7 26.7-26.7 14.8 0 26.8 11.9 26.8 26.7 0 14.8-12 26.8-26.8 26.8zm-37.1 77.4c-17.8 0-32.2-14.4-32.2-32.2 0-17.8 14.4-32.1 32.2-32.1 17.8 0 32.1 14.3 32.1 32.1 0 17.8-14.3 32.2-32.1 32.2zm165.9-142.1c-13.7 0-24.7-11.2-24.7-24.9 0-13.7 11-24.8 24.7-24.8 13.7 0 24.8 11.1 24.8 24.8 0 13.7-11.1 24.9-24.8 24.9zm-39.1-60.9c-13.7 0-24.8-11.2-24.8-24.9 0-13.7 11.1-24.8 24.8-24.8 13.7 0 24.7 11.1 24.7 24.8 0 13.7-11 24.9-24.7 24.9zm90.5 125.6c-14.8 0-26.8-12-26.8-26.8 0-14.8 12-26.7 26.8-26.7 14.7 0 26.7 11.9 26.7 26.7 0 14.8-12 26.8-26.7 26.8zm37.1 77.4c-17.8 0-32.1-14.4-32.1-32.2 0-17.8 14.3-32.1 32.1-32.1 17.8 0 32.2 14.3 32.2 32.1 0 17.8-14.4 32.2-32.2 32.2zm-171.7-111.8l9.6 24.2h-3.4l-2.1-5.4h-12l-2.3 5.4h-3.4l9.8-24.2zm3.3 16.1l-5.2-13-5.2 13zm21.8 5.3h11.2v2.8h-14.3v-24.2h3.1zm42.6-3.9c0 3.9-2.6 6.5-6.9 6.5h-11.1v-24.1h10.7c4.3 0 6.9 2.5 6.9 6.2 0 3.1-2 5-4.3 5.5 2.6 0.3 4.7 3.1 4.7 5.9zm-15-7.1h7.2c2.8 0 4.1-1.7 4.1-4 0-2.1-1.3-3.8-4.1-3.8h-7.2zm11.9 6.7c0-2-1.6-4.1-4.5-4.1h-7.4v8.5h7.4c2.9 0 4.5-1.8 4.5-4.4zm28.3-17.2l9.8 24.1h-3.5l-2.2-5.3h-12.1l-2 5.3h-3.5l9.8-24.1zm3.3 16l-5.2-12.9-5.1 12.9zm-96.1 51.4l9.8 24.2h-3.5l-2.2-5.3h-12.1l-2 5.3h-3.5l9.8-24.2zm3.3 16.3l-5.2-13.1-5.1 13.1zm21.5 5.3h11.4v2.6h-14.3v-24.2h2.9zm42.8-3.7c0 3.7-2.6 6.5-7.1 6.5h-10.8v-24.1h10.7c4.1 0 6.7 2.4 6.7 6 0 3.1-2.1 5.2-4.1 5.5 2.6 0.5 4.6 3.1 4.6 6.1zm-15-7.3h7.3c2.7 0 4.1-1.5 4.1-3.8 0-2.2-1.4-4-4.1-4h-7.3zm11.9 6.9c0-2.2-1.5-4.1-4.5-4.1h-7.4v8.3h7.4c2.8 0 4.5-1.6 4.5-4.2zm28.3-17.4l9.7 24.3h-3.5l-2-5.5h-12.1l-2.1 5.5h-3.4l9.6-24.3zm3.3 16.2l-5.2-13.1-5 13.1zm-90.1-775.5c-13.7 0-24.8-11.1-24.8-24.8 0-13.8 11.1-24.9 24.8-24.9 13.7 0 24.7 11.1 24.7 24.9 0 13.7-11 24.8-24.7 24.8zm-51.4-60.9c-14.8 0-26.7-11.9-26.7-26.7 0-14.8 11.9-26.8 26.7-26.8 14.7 0 26.6 12 26.6 26.8 0 14.8-11.9 26.7-26.6 26.7zm-37.1-66.6c-17.8 0-32.2-14.4-32.2-32.2 0-17.7 14.4-32.1 32.2-32.1 17.8 0 32.1 14.4 32.1 32.1 0 17.8-14.3 32.2-32.1 32.2zm165.8 127.5c-13.7 0-24.8-11.1-24.8-24.8 0-13.8 11.1-24.9 24.8-24.9 13.8 0 24.9 11.1 24.9 24.9 0 13.7-11.1 24.8-24.9 24.8zm51.4-60.9c-14.8 0-26.7-11.9-26.7-26.7 0-14.8 11.9-26.8 26.7-26.8 14.7 0 26.6 12 26.6 26.8 0 14.8-11.9 26.7-26.6 26.7zm37.1-66.6c-17.8 0-32.2-14.4-32.2-32.2 0-17.7 14.4-32.1 32.2-32.1 17.8 0 32.1 14.4 32.1 32.1 0 17.8-14.3 32.2-32.1 32.2zm-181.8 47.5h-3.4l9.6-24.2h3.8l9.7 24.2h-3.5l-2-5.6h-12.1zm3.1-7.9h10.2l-5.2-13.1zm43.3 8.1h-14.3v-24.1h2.9v21.3h11.4zm24.3 0h-11v-24.1h10.8c4.2 0 6.8 2.6 6.8 6.2 0 2.9-2.1 5-4.2 5.5 2.6 0.4 4.7 3.1 4.7 5.9 0 4-2.6 6.5-7.1 6.5zm-7.9-13.6h7.2c2.8 0 4.2-1.7 4.2-3.9 0-2.1-1.4-3.8-4.2-3.8h-7.2zm7.4 10.8c2.8 0 4.5-1.5 4.5-4.1 0-2.3-1.6-4.2-4.5-4.2h-7.4v8.3zm22.8 2.8h-3.5l9.7-24.2h3.8l9.6 24.2h-3.4l-2.1-5.4h-12.1zm3.1-8.1h10.2l-5.2-13.1zm-95.7-59.3h-3.5l9.7-24.4h3.8l9.7 24.4h-3.5l-2.1-5.6h-12zm3.1-7.9h10.1l-5.1-13.1zm43.3 8.1h-14.4v-24.3h3v21.5h11.4zm24.3 0h-11v-24.1h10.8c4.2 0 6.7 2.6 6.7 6.2 0 2.9-2 5-4.1 5.5 2.6 0.4 4.7 3 4.7 5.9 0 4-2.6 6.5-7.1 6.5zm-7.9-13.6h7.2c2.8 0 4.1-1.7 4.1-4 0-2.2-1.3-3.9-4.1-3.9h-7.2zm7.4 11c2.7 0 4.5-1.5 4.5-4.1 0-2.3-1.6-4.2-4.5-4.2h-7.4v8.3zm22.7 2.8h-3.4l9.6-24.2h3.8l9.7 24.2h-3.5l-2-5.4h-12.1zm3.1-8.1h10.2l-5.2-13.1zm-85.7 605.8l9.6 24.1h-3.4l-2.1-5.3h-12.1l-2 5.3h-3.5l9.7-24.1zm3.2 16l-5.1-12.9-5 12.9zm32.7 8.1h-14.1v-24.1h2.9v21.4h11.2zm13.5-24.2h10.9c4.1 0 6.7 2.6 6.7 6.2 0 3.1-2.1 5-4.3 5.5 2.6 0.4 4.8 3.1 4.8 6.1 0 3.8-2.6 6.4-7.1 6.4h-11zm3.1 10.5h7.3c2.7 0 4.1-1.7 4.1-3.8 0-2.3-1.4-4-4.1-4h-7.3zm0 11.1h7.4c2.8 0 4.5-1.6 4.5-4.2 0-2.2-1.5-4.1-4.5-4.1h-7.4zm40.2-21.6l9.7 24.2h-3.5l-2.1-5.4h-12l-2.1 5.4h-3.4l9.6-24.2zm3.3 16.1l-5.2-13-5 13z"/></svg>