<svg version="1.2" xmlns="http://www.w3.org/2000/svg" viewBox="0 0 673 739" width="673" height="739"><style>tspan{white-space:pre}.a{fill:#6c63ff}.b{fill:#fff}.c{fill:#3f3d56}.d{fill:#2f2e41}.e{fill:#ccc}.f{font-size: 90px;fill: #000000;font-weight: 700;font-family: "BaiJamjuree-Bold", "Bai Jamjuree"}</style><path class="a" d="m467 149.8c-46.6-7.4-99.7-11.4-155-11.4-50.6 0-99.4 3.3-143 9.6q0-1 0.1-2c1.1-38.9 17.4-75.8 45.4-102.8 28.1-27.1 65.5-42 104.4-41.8 38.9 0.2 76.2 15.7 103.9 43 27.6 27.4 43.5 64.5 44.2 103.4q0 1 0 2z"/><g style="opacity:.1"><path class="b" d="m288.5 16.9c-15.3 8.1-29.1 18.7-40.7 31.4-11.7 12.7-21.1 27.4-27.7 43.3-6.7 16-10.5 32.9-11.4 50.2-13.7 1.3-27.2 2.9-40.1 4.8q0-1 0-2c0.6-20.9 5.7-41.4 14.7-60.2 9.1-18.8 22-35.5 37.9-49 15.9-13.5 34.5-23.5 54.6-29.4 20-5.9 41.1-7.5 61.8-4.7-17.2 2.4-33.8 7.6-49.1 15.6z"/></g><path fill-rule="evenodd" class="c" d="m624 223.4c0 13.5-10.8 26.5-31.2 38.2q-4.9 2.8-10.6 5.5-1.4 0.7-3 1.4-0.4 0.2-0.8 0.4-0.6 0.3-1.1 0.5-0.8 0.4-1.6 0.7-1.6 0.7-3.3 1.4-1 0.5-2.1 0.9-1 0.4-2.1 0.8-2.1 0.9-4.3 1.7-0.8 0.3-1.6 0.6-1 0.4-2 0.7-1.2 0.5-2.3 0.9-1.1 0.4-2.2 0.8-0.5 0.1-1 0.3-1.2 0.4-2.4 0.8-0.9 0.3-1.8 0.6-1.2 0.4-2.5 0.8-1.7 0.6-3.4 1.1-2.2 0.7-4.4 1.3-0.1 0.1-0.2 0.1-2.5 0.7-5.1 1.5-1.3 0.3-2.7 0.7 0 0 0 0 0 0 0 0-0.1 0-0.1 0 0 0.1 0 0.1-1.4 0.3-2.8 0.7-3.9 1.1-7.9 2.1-0.3 0-0.6 0.1c-39.4 9.9-86.5 16.7-137.4 20-23.2 1.5-47.1 2.3-71.5 2.3-24.3 0-48.2-0.8-71.3-2.3-55.9-3.6-107.2-11.4-148.9-22.9-59.2-16.4-91.8-38.3-91.8-61.8 0-23.5 32.6-45.4 91.8-61.8q9.5-2.5 19.1-4.8 9.6-2.3 19.3-4.2 9.7-2 19.4-3.6 9.7-1.7 19.5-3 13.2-1.9 26.4-3.4 13.2-1.5 26.5-2.6 13.3-1.1 26.6-1.9 13.3-0.7 26.6-1.1c12.1-0.4 24.4-0.6 36.8-0.6 15.6 0 31.1 0.3 46.2 0.9q13.7 0.6 27.3 1.5 13.7 0.9 27.3 2.2 13.6 1.3 27.1 3 13.6 1.7 27.1 3.8 8.2 1.3 16.4 2.8 8.2 1.5 16.4 3.2 8.1 1.7 16.2 3.7 8.1 1.9 16.2 4.1c59.2 16.4 91.8 38.3 91.8 61.8zm-2 0q0-0.8 0-1.5-0.1-0.7-0.2-1.5-0.1-0.7-0.2-1.5-0.2-0.7-0.3-1.4c-5.2-20.3-36.5-39.3-89.7-54q-7.9-2.1-16-4.1-8-1.9-16.1-3.6-8.1-1.7-16.2-3.2-8.1-1.5-16.3-2.8-13.6-2.1-27.2-3.8-13.7-1.7-27.3-3-13.7-1.4-27.4-2.3-13.7-0.9-27.5-1.4c-15-0.6-30.2-0.9-45.6-0.9q-18.3 0-36.2 0.6-13.4 0.4-26.8 1.1-13.3 0.8-26.7 1.9-13.4 1.1-26.7 2.6-13.3 1.5-26.6 3.4-9.7 1.3-19.3 3-9.7 1.6-19.3 3.6-9.5 1.9-19.1 4.2-9.5 2.2-18.9 4.7c-53.2 14.7-84.6 33.7-89.7 54q-0.1 0.7-0.3 1.5-0.1 0.7-0.2 1.4-0.1 0.8-0.2 1.5 0 0.7 0 1.5c0 22.5 32.1 43.7 90.4 59.8 41.7 11.6 93.3 19.4 149.5 23 22.7 1.5 46.2 2.2 70.1 2.2 24 0 47.6-0.8 70.4-2.2 56.1-3.6 107.6-11.4 149.2-23 58.3-16.1 90.4-37.3 90.4-59.8z"/><path class="c" d="m623.4 224.3c0 13.4-11 26-30.6 37.3q-5 2.8-10.6 5.5-1.4 0.7-3 1.4-0.4 0.2-0.8 0.4-0.6 0.3-1.1 0.5-0.8 0.4-1.6 0.7-1.6 0.7-3.3 1.4-1 0.5-2.1 0.9-1 0.4-2.1 0.8-2.1 0.9-4.3 1.7-0.8 0.3-1.6 0.6-1 0.4-2 0.7-1.2 0.5-2.3 0.9-1.1 0.4-2.3 0.8-0.4 0.1-0.9 0.3-1.2 0.4-2.4 0.8-0.9 0.3-1.8 0.6-1.2 0.4-2.5 0.8-1.7 0.6-3.4 1.1-2.2 0.7-4.4 1.3-0.1 0.1-0.2 0.1-2.5 0.7-5.1 1.5-1.3 0.3-2.7 0.7 0 0 0 0 0 0 0 0-0.1 0-0.1 0 0 0.1 0 0.1-1.4 0.3-2.8 0.7-3.9 1.1-7.9 2.1-0.3 0-0.6 0.1c-38.3 9.6-85.4 16.6-137.4 20-22.9 1.4-46.6 2.2-71.1 2.2-24.6 0-48.6-0.8-71.6-2.3-137.2-8.9-239.4-43-239.4-83.7q0-0.9 0.1-1.8 0.1-1 0.2-1.9 0.2-0.9 0.4-1.8 0.2-0.9 0.4-1.8 0.1 0.3 0.2 0.5c14.3 37.5 115.6 67.8 247 75.2 20.1 1.1 41 1.7 62.3 1.7 21.4 0 42.4-0.6 62.6-1.7 131.3-7.5 232.4-37.8 246.6-75.2q0.4-0.9 0.7-1.8 0.4 1 0.6 2.1 0.3 1 0.5 2.1 0.2 1.1 0.3 2.2 0.1 1.1 0.1 2.2z"/><path fill-rule="evenodd" class="c" d="m91.7 213.5c-16.7 0-34.4-3.5-34.4-10.2 0-6.6 17.7-10.2 34.4-10.2 16.6 0 34.3 3.6 34.3 10.2 0 6.7-17.7 10.2-34.3 10.2zm0-18.4c-19.1 0-32.4 4.3-32.4 8.2 0 3.9 13.3 8.2 32.4 8.2 19 0 32.3-4.3 32.3-8.2 0-3.9-13.3-8.2-32.3-8.2z"/><path fill-rule="evenodd" class="c" d="m162.7 260.5c-16.7 0-34.4-3.5-34.4-10.2 0-6.6 17.7-10.2 34.4-10.2 16.6 0 34.3 3.6 34.3 10.2 0 6.7-17.7 10.2-34.3 10.2zm0-18.4c-19.1 0-32.4 4.3-32.4 8.2 0 3.9 13.3 8.2 32.4 8.2 19 0 32.3-4.3 32.3-8.2 0-3.9-13.3-8.2-32.3-8.2z"/><path fill-rule="evenodd" class="c" d="m531.7 213.5c-16.7 0-34.4-3.5-34.4-10.2 0-6.6 17.7-10.2 34.4-10.2 16.6 0 34.3 3.6 34.3 10.2 0 6.7-17.7 10.2-34.3 10.2zm0-18.4c-19.1 0-32.4 4.3-32.4 8.2 0 3.9 13.3 8.2 32.4 8.2 19 0 32.3-4.3 32.3-8.2 0-3.9-13.3-8.2-32.3-8.2z"/><path fill-rule="evenodd" class="c" d="m460.7 260.5c-16.7 0-34.4-3.5-34.4-10.2 0-6.6 17.7-10.2 34.4-10.2 16.6 0 34.3 3.6 34.3 10.2 0 6.7-17.7 10.2-34.3 10.2zm0-18.4c-19.1 0-32.4 4.3-32.4 8.2 0 3.9 13.3 8.2 32.4 8.2 19 0 32.3-4.3 32.3-8.2 0-3.9-13.3-8.2-32.3-8.2z"/><path fill-rule="evenodd" class="c" d="m311.7 282.5c-16.7 0-34.4-3.5-34.4-10.2 0-6.6 17.7-10.2 34.4-10.2 16.6 0 34.3 3.6 34.3 10.2 0 6.7-17.7 10.2-34.3 10.2zm0-18.4c-19.1 0-32.4 4.3-32.4 8.2 0 3.9 13.3 8.2 32.4 8.2 19 0 32.3-4.3 32.3-8.2 0-3.9-13.3-8.2-32.3-8.2z"/><path class="d" d="m337 492.7c-23.3 0-42-18.8-42-42 0-23.2 18.7-42 42-42 23.2 0 42 18.8 42 42 0 23.2-18.8 42-42 42z"/><path class="d" d="m300.6 488.5l20.4-10.2 5.7 11.4-20.4 10.3z"/><path class="d" d="m309 498.8c-1.2 1.8-6.2 0.7-11.1-2.5-4.9-3.3-7.9-7.4-6.7-9.2 1.2-1.9 6.2-0.7 11.1 2.5 4.9 3.3 7.9 7.4 6.7 9.2z"/><path class="d" d="m347.2 489.7l5.8-11.4 20.4 10.2-5.7 11.5z"/><path class="d" d="m376.1 496.3c-4.9 3.2-9.9 4.3-11.1 2.5-1.2-1.8 1.8-5.9 6.7-9.2 4.9-3.2 9.8-4.4 11-2.5 1.3 1.8-1.7 5.9-6.6 9.2z"/><path class="b" d="m334 454.8c-7.9 0-14.3-6.4-14.3-14.4 0-7.9 6.4-14.3 14.3-14.3 8 0 14.4 6.4 14.4 14.3 0 8-6.4 14.4-14.4 14.4z"/><path class="c" d="m337.5 437.7c-1.8 1.8-4.9 1.8-6.7 0-1.9-1.9-1.9-4.9-0.1-6.8 1.9-1.9 4.9-1.9 6.8 0 1.9 1.9 1.9 4.9 0 6.8z"/><path class="a" d="m336.4 422.3c-17.1-0.7-29.1-4.3-28.4-19.8 0.6-15.6 15-27.6 32.2-26.9 17.1 0.7 30.6 13.8 29.9 29.4-0.6 15.6-16.5 18-33.7 17.3z"/><path class="d" d="m394.3 472.7c-2.7 2.4-11.1-2.8-18.6-11.6-7.6-8.9-11.5-17.9-8.7-20.3 2.7-2.3 11.1 2.9 18.7 11.7 7.5 8.8 11.4 17.8 8.6 20.2z"/><path class="d" d="m298.4 461.1c-7.5 8.8-15.9 14-18.7 11.6-2.7-2.4 1.1-11.4 8.7-20.2 7.6-8.8 15.9-14 18.7-11.7 2.8 2.4-1.1 11.4-8.7 20.3z"/><path class="b" d="m348.5 467.3c0.5 2.5-0.1 5-1.5 7.1-1.5 2.1-3.7 3.5-6.2 4-2.5 0.4-5.1-0.1-7.1-1.6-2.1-1.4-3.6-3.6-4-6.1-1-5.2 3.1-7.1 8.3-8 5.2-1 9.6-0.6 10.5 4.6z"/><path class="e" d="m266 495.4q-0.4 0-0.8-0.2-0.3-0.1-0.6-0.4-0.3-0.3-0.4-0.6-0.2-0.4-0.2-0.8v-118c0-0.5 0.2-1 0.6-1.4 0.4-0.4 0.9-0.6 1.4-0.6 0.5 0 1 0.2 1.4 0.6 0.4 0.4 0.6 0.9 0.6 1.4v118q0 0.4-0.2 0.8-0.1 0.3-0.4 0.6-0.3 0.3-0.6 0.4-0.4 0.2-0.8 0.2z"/><path class="e" d="m236 601.4q-0.4 0-0.8-0.2-0.3-0.1-0.6-0.4-0.3-0.3-0.4-0.6-0.2-0.4-0.2-0.8v-86c0-0.5 0.2-1 0.6-1.4 0.4-0.4 0.9-0.6 1.4-0.6 0.5 0 1 0.2 1.4 0.6 0.4 0.4 0.6 0.9 0.6 1.4v86q0 0.4-0.2 0.8-0.1 0.3-0.4 0.6-0.3 0.3-0.6 0.4-0.4 0.2-0.8 0.2z"/><path class="e" d="m313 530.4q-0.4 0-0.8-0.2-0.3-0.1-0.6-0.4-0.3-0.3-0.4-0.6-0.2-0.4-0.2-0.8v-118c0-0.5 0.2-1 0.6-1.4 0.4-0.4 0.9-0.6 1.4-0.6 0.5 0 1 0.2 1.4 0.6 0.4 0.4 0.6 0.9 0.6 1.4v118q0 0.4-0.2 0.8-0.1 0.3-0.4 0.6-0.3 0.3-0.6 0.4-0.4 0.2-0.8 0.2z"/><path class="e" d="m284 615.4q-0.4 0-0.8-0.2-0.3-0.1-0.6-0.4-0.3-0.3-0.4-0.6-0.2-0.4-0.2-0.8v-48c0-0.5 0.2-1 0.6-1.4 0.4-0.4 0.9-0.6 1.4-0.6 0.5 0 1 0.2 1.4 0.6 0.4 0.4 0.6 0.9 0.6 1.4v48q0 0.4-0.2 0.8-0.1 0.3-0.4 0.6-0.3 0.3-0.6 0.4-0.4 0.2-0.8 0.2z"/><path class="e" d="m325 369.4q-0.4 0-0.8-0.2-0.3-0.1-0.6-0.4-0.3-0.3-0.4-0.6-0.2-0.4-0.2-0.8v-48c0-0.5 0.2-1 0.6-1.4 0.4-0.4 0.9-0.6 1.4-0.6 0.5 0 1 0.2 1.4 0.6 0.4 0.4 0.6 0.9 0.6 1.4v48q0 0.4-0.2 0.8-0.1 0.3-0.4 0.6-0.3 0.3-0.6 0.4-0.4 0.2-0.8 0.2z"/><path class="e" d="m225 390.4q-0.4 0-0.8-0.2-0.3-0.1-0.6-0.4-0.3-0.3-0.4-0.6-0.2-0.4-0.2-0.8v-48c0-0.5 0.2-1 0.6-1.4 0.4-0.4 0.9-0.6 1.4-0.6 0.5 0 1 0.2 1.4 0.6 0.4 0.4 0.6 0.9 0.6 1.4v48q0 0.4-0.2 0.8-0.1 0.3-0.4 0.6-0.3 0.3-0.6 0.4-0.4 0.2-0.8 0.2z"/><path class="e" d="m399 395.4q-0.4 0-0.8-0.2-0.3-0.1-0.6-0.4-0.3-0.3-0.4-0.6-0.2-0.4-0.2-0.8v-48c0-0.5 0.2-1 0.6-1.4 0.4-0.4 0.9-0.6 1.4-0.6 0.5 0 1 0.2 1.4 0.6 0.4 0.4 0.6 0.9 0.6 1.4v48q0 0.4-0.2 0.8-0.1 0.3-0.4 0.6-0.3 0.3-0.6 0.4-0.4 0.2-0.8 0.2z"/><path class="e" d="m395 545.4q-0.4 0-0.8-0.2-0.3-0.1-0.6-0.4-0.3-0.3-0.4-0.6-0.2-0.4-0.2-0.8v-58c0-0.5 0.2-1 0.6-1.4 0.4-0.4 0.9-0.6 1.4-0.6 0.5 0 1 0.2 1.4 0.6 0.4 0.4 0.6 0.9 0.6 1.4v58q0 0.4-0.2 0.8-0.1 0.3-0.4 0.6-0.3 0.3-0.6 0.4-0.4 0.2-0.8 0.2z"/><path class="e" d="m355 596.4q-0.4 0-0.8-0.2-0.3-0.1-0.6-0.4-0.3-0.3-0.4-0.6-0.2-0.4-0.2-0.8v-86c0-0.5 0.2-1 0.6-1.4 0.4-0.4 0.9-0.6 1.4-0.6 0.5 0 1 0.2 1.4 0.6 0.4 0.4 0.6 0.9 0.6 1.4v86q0 0.4-0.2 0.8-0.1 0.3-0.4 0.6-0.3 0.3-0.6 0.4-0.4 0.2-0.8 0.2z"/><path class="e" d="m363 449.4q-0.4 0-0.8-0.2-0.3-0.1-0.6-0.4-0.3-0.3-0.4-0.6-0.2-0.4-0.2-0.8v-118c0-0.5 0.2-1 0.6-1.4 0.4-0.4 0.9-0.6 1.4-0.6 0.5 0 1 0.2 1.4 0.6 0.4 0.4 0.6 0.9 0.6 1.4v118q0 0.4-0.2 0.8-0.1 0.3-0.4 0.6-0.3 0.3-0.6 0.4-0.4 0.2-0.8 0.2z"/><text style="transform:matrix(1,0,0,1,56,563)" ><tspan x="0" y="0" class="f">C</tspan><tspan  y="0" class="f">y</tspan><tspan  y="0" class="f">b</tspan><tspan  y="0" class="f">e</tspan><tspan  y="0" class="f">r</tspan><tspan  y="0" class="f">X</tspan><tspan  y="0" class="f">p</tspan><tspan  y="0" class="f">l</tspan><tspan  y="0" class="f">o</tspan><tspan  y="0" class="f">i</tspan><tspan  y="0" class="f">t</tspan><tspan  y="0" class="f">
</tspan></text></svg>