<?xml version="1.0" encoding="utf-8"?>
<!-- Generator: Adobe Illustrator 22.0.0, SVG Export Plug-In . SVG Version: 6.00 Build 0)  -->
<svg version="1.1" id="Layer_1" xmlns="http://www.w3.org/2000/svg" xmlns:xlink="http://www.w3.org/1999/xlink" x="0px" y="0px"
	 viewBox="0 0 982.916 498.25" style="enable-background:new 0 0 982.916 498.25;" xml:space="preserve">
<style type="text/css">
	.st0{fill:url(#SVGID_1_);}
	.st1{fill:url(#SVGID_2_);}
	.st2{fill:#333333;}
</style>
<g>
	
		<linearGradient id="SVGID_1_" gradientUnits="userSpaceOnUse" x1="433.3373" y1="497.8386" x2="663.335" y2="497.8386" gradientTransform="matrix(1 0 0 1 0 -348.5567)">
		<stop  offset="0" style="stop-color:#ED208C"/>
		<stop  offset="1" style="stop-color:#EC2426"/>
	</linearGradient>
	<path class="st0" d="M581.671,105.131c-5.066-5.066-11.805-7.856-18.97-7.856s-13.904,2.79-18.97,7.856l-26.639,26.639
		l37.94,37.944l26.639-26.639c5.07-5.066,7.859-11.805,7.859-18.97C589.53,116.936,586.74,110.201,581.671,105.131z
		 M553.183,113.924l-15.996,15.996l-4.497-4.494l15.996-15.996c3.307-3.307,22.079-10.975,30.011,5.156
		C567.461,101.762,553.183,113.924,553.183,113.924z M663.18,3.319c-22.127,38.452-44.256,76.904-66.402,115.391
		c-0.543,0.943-1.961,0.693-2.154-0.379c-1.132-6.288-4.127-12.306-8.987-17.166c-12.665-12.665-33.204-12.665-45.873,0
		l-26.639,26.639l-26.639,26.639c-6.336,6.333-9.501,14.636-9.501,22.94c0,8.3,3.165,16.6,9.501,22.936
		c6.333,6.336,14.633,9.501,22.936,9.501c8.3,0,16.6-3.165,22.936-9.501l26.639-26.639l8.252-8.252
		c0.962-0.962,2.512,0.224,1.834,1.403c-24.644,42.825-49.322,85.713-74.06,128.698c-1.129,1.962-3.962,1.964-5.093,0.002
		c-10.571-18.336-20.748-35.986-30.919-53.639c-8.054-13.98-16.007-28.016-24.206-41.91c-1.818-3.081-2.033-5.406-0.16-8.64
		c21.489-37.069,42.496-74.423,64.27-111.326c25.796-43.714,64.322-69.343,114.466-76.415c16.026-2.261,32.48-1.495,48.748-2.038
		c0.507-0.017,0.966,0.296,1.134,0.775l0.005,0.013C663.382,2.671,663.349,3.025,663.18,3.319z"/>
	
		<linearGradient id="SVGID_2_" gradientUnits="userSpaceOnUse" x1="379.9684" y1="354.0397" x2="474.3508" y2="587.2197" gradientTransform="matrix(1 0 0 1 0 -348.5567)">
		<stop  offset="0" style="stop-color:#3A54A4"/>
		<stop  offset="1" style="stop-color:#2CA9E1"/>
	</linearGradient>
	<path class="st1" d="M421.78,177.119C388.115,118.625,354.872,60.863,321.311,2.55c1.706-0.184,2.917-0.428,4.129-0.43
		c18.997-0.02,37.994-0.129,56.99,0.021c39.691,0.313,74.048,30.86,79.463,70.234c2.594,18.866-0.875,36.432-10.285,52.882
		C441.852,142.311,432.021,159.321,421.78,177.119z"/>
</g>
<g>
	<path class="st2" d="M109.136,371.643c-2.238-1.995-4.868-2.992-7.888-2.992c-4.597,0-7.92,2.299-9.975,6.891l-33.379,85.692
		l-36.44-85.692c-2.057-4.714-5.38-7.072-9.974-7.072c-2.297,0-4.715,0.938-7.253,2.811c-2.54,1.877-3.81,4.565-3.81,8.07
		c0,0.726,0.06,1.482,0.181,2.266c0.119,0.788,0.364,1.543,0.726,2.268l44.794,105.182c0.966,2.177,2.357,3.84,4.17,4.988
		c1.813,1.15,3.686,1.785,5.622,1.904c2.054,0,4.08-0.572,6.074-1.723c1.996-1.147,3.537-2.93,4.625-5.351l44.794-104.819
		c0.725-1.692,1.088-3.324,1.088-4.896C112.492,376.15,111.373,373.639,109.136,371.643z"/>
	<path class="st2" d="M143.139,369.013c-3.387,0-6.166,1.061-8.343,3.174c-2.176,2.117-3.264,4.747-3.264,7.89v104.82
		c0,3.145,1.026,5.775,3.083,7.889c2.054,2.116,4.775,3.174,8.161,3.174c3.021,0,5.682-1.057,7.979-3.174
		c2.295-2.114,3.445-4.744,3.445-7.889v-104.82c0-3.143-1.118-5.773-3.355-7.89C148.608,370.075,146.04,369.013,143.139,369.013z"/>
	<path class="st2" d="M263.644,428.588c-2.022-1.159-4.077-2.153-6.16-3c4.761-2.307,8.423-5.411,10.966-9.332
		c2.78-4.29,4.172-9.278,4.172-14.962c0-10.637-2.842-18.678-8.524-24.118c-5.683-5.441-14.326-8.162-25.933-8.162h-45.7
		c-3.145,0-5.775,1.061-7.889,3.174c-2.116,2.117-3.174,4.747-3.174,7.89v104.819c0,3.145,1.057,5.775,3.174,7.889
		c2.114,2.116,4.744,3.174,7.889,3.174h45.156c4.472,0,9.128-0.513,13.964-1.542c4.833-1.025,9.367-2.93,13.601-5.713
		c4.231-2.779,7.646-6.71,10.246-11.787c2.599-5.078,3.9-11.606,3.9-19.586c0-7.255-1.482-13.207-4.443-17.863
		C271.924,434.816,268.178,431.19,263.644,428.588z M245.147,393.95c2.598,2.358,3.899,6.138,3.899,11.334
		c0,4.353-1.391,7.679-4.17,9.974c-2.783,2.297-5.925,3.447-9.43,3.447h-30.467v-28.291h29.922
		C239.131,390.414,242.546,391.592,245.147,393.95z M250.859,470.662c-3.264,2.964-7.679,4.442-13.238,4.442h-32.643v-35.001h31.373
		c2.539,0,5.318,0.304,8.342,0.907c3.021,0.607,5.622,2.116,7.798,4.534c2.177,2.42,3.264,6.347,3.264,11.787
		C255.756,463.257,254.123,467.7,250.859,470.662z"/>
	<path class="st2" d="M392.13,369.013c-3.023,0-5.684,1.061-7.979,3.174c-2.297,2.117-3.445,4.747-3.445,7.89v41.71h-57.851v-41.71
		c0-3.143-1.118-5.773-3.355-7.89c-2.238-2.113-4.806-3.174-7.706-3.174c-3.387,0-6.166,1.061-8.343,3.174
		c-2.176,2.117-3.264,4.747-3.264,7.89v104.82c0,3.145,1.027,5.775,3.083,7.889c2.054,2.116,4.775,3.174,8.161,3.174
		c3.021,0,5.682-1.057,7.979-3.174c2.295-2.114,3.445-4.744,3.445-7.889v-42.254h57.851v42.254c0,3.145,1.117,5.775,3.355,7.889
		c2.235,2.116,4.806,3.174,7.708,3.174c3.505,0,6.316-1.057,8.433-3.174c2.114-2.114,3.174-4.744,3.174-7.889v-104.82
		c0-3.143-1.029-5.773-3.083-7.89C398.235,370.075,395.514,369.013,392.13,369.013z"/>
	<path class="st2" d="M520.706,368.832c-3.145,0-5.621,1.061-7.436,3.174c-1.813,2.117-2.719,4.747-2.719,7.89v65.648
		c0,6.047-1.391,11.275-4.172,15.687c-2.783,4.414-6.409,7.828-10.881,10.246c-4.473,2.42-9.311,3.627-14.506,3.627
		c-4.838,0-9.403-1.207-13.693-3.627c-4.293-2.418-7.739-5.832-10.336-10.246c-2.601-4.412-3.9-9.64-3.9-15.687v-65.648
		c0-3.143-1.119-5.773-3.355-7.89c-2.238-2.113-4.746-3.174-7.525-3.174c-3.387,0-6.166,1.061-8.343,3.174
		c-2.176,2.117-3.264,4.747-3.264,7.89v65.648c0,10.036,2.146,18.923,6.438,26.658c4.291,7.739,10.216,13.783,17.772,18.136
		c7.555,4.352,16.29,6.529,26.206,6.529c9.911,0,18.616-2.177,26.114-6.529c7.494-4.353,13.389-10.397,17.682-18.136
		c4.29-7.735,6.438-16.622,6.438-26.658v-65.648c0-3.143-0.969-5.773-2.902-7.89C526.387,369.893,523.849,368.832,520.706,368.832z"
		/>
	<path class="st2" d="M628.425,474.741h-47.333v-94.664c0-3.143-1.118-5.773-3.355-7.89c-2.238-2.113-4.806-3.174-7.706-3.174
		c-3.387,0-6.166,1.061-8.343,3.174c-2.176,2.117-3.264,4.747-3.264,7.89v104.82c0,3.145,1.057,5.775,3.174,7.889
		c2.114,2.116,4.744,3.174,7.889,3.174h58.939c3.141,0,5.772-0.998,7.888-2.992c2.115-1.995,3.174-4.503,3.174-7.526
		c0-3.143-1.059-5.712-3.174-7.706C634.197,475.738,631.567,474.741,628.425,474.741z"/>
	<path class="st2" d="M715.291,375.542c-0.846-2.294-2.207-4.08-4.08-5.348c-1.877-1.271-3.9-1.905-6.076-1.905
		c-2.299-0.241-4.443,0.303-6.438,1.632c-1.995,1.332-3.476,3.206-4.443,5.621L649.098,483.99c-0.362,1.209-0.544,2.357-0.544,3.445
		c0,2.661,0.784,4.896,2.358,6.71c1.569,1.813,3.989,2.721,7.253,2.721c2.054,0,3.958-0.635,5.713-1.905
		c1.75-1.269,3.051-3.052,3.899-5.349l9.407-22.124h54.079l9.417,21.943c0.966,2.297,2.326,4.112,4.08,5.44
		c1.751,1.329,3.719,1.996,5.894,1.996c2.539,0,4.865-0.967,6.982-2.902c2.114-1.933,3.174-4.534,3.174-7.798
		c0-1.329-0.303-2.779-0.906-4.353L715.291,375.542z M686.053,446.631l18.047-42.443l18.214,42.443H686.053z"/>
	<path class="st2" d="M858.465,428.588c-2.022-1.159-4.077-2.153-6.16-3c4.761-2.307,8.423-5.411,10.966-9.332
		c2.78-4.29,4.172-9.278,4.172-14.962c0-10.637-2.842-18.678-8.524-24.118c-5.683-5.441-14.326-8.162-25.933-8.162h-45.7
		c-3.145,0-5.775,1.061-7.889,3.174c-2.116,2.117-3.174,4.747-3.174,7.89v104.819c0,3.145,1.057,5.775,3.174,7.889
		c2.114,2.116,4.744,3.174,7.889,3.174h45.156c4.472,0,9.128-0.513,13.964-1.542c4.833-1.025,9.367-2.93,13.601-5.713
		c4.231-2.779,7.646-6.71,10.246-11.787c2.599-5.078,3.9-11.606,3.9-19.586c0-7.255-1.482-13.207-4.443-17.863
		C866.745,434.816,862.999,431.19,858.465,428.588z M839.968,393.95c2.598,2.358,3.899,6.138,3.899,11.334
		c0,4.353-1.391,7.679-4.17,9.974c-2.783,2.297-5.925,3.447-9.43,3.447H799.8v-28.291h29.922
		C833.952,390.414,837.366,391.592,839.968,393.95z M845.68,470.662c-3.264,2.964-7.679,4.442-13.238,4.442h-32.643v-35.001h31.373
		c2.539,0,5.318,0.304,8.342,0.907c3.021,0.607,5.622,2.116,7.798,4.534c2.177,2.42,3.264,6.347,3.264,11.787
		C850.576,463.257,848.944,467.7,845.68,470.662z"/>
	<path class="st2" d="M979.698,444.184c-1.813-4.291-4.534-7.858-8.161-10.7c-3.628-2.839-8.193-5.167-13.693-6.982
		c-5.502-1.813-11.878-3.384-19.133-4.715c-5.562-1.089-10.336-2.326-14.326-3.717c-3.99-1.389-7.045-3.264-9.159-5.621
		c-2.117-2.358-3.174-5.351-3.174-8.977c0-3.021,0.906-5.682,2.721-7.979c1.813-2.295,4.502-4.11,8.07-5.44
		c3.565-1.329,7.947-1.996,13.148-1.996c3.143,0,6.529,0.516,10.155,1.543c3.627,1.028,7.072,2.297,10.336,3.808
		c3.264,1.513,5.863,3.114,7.798,4.805c1.451,1.09,3.083,1.633,4.896,1.633c2.78,0,5.197-1.088,7.255-3.264
		c2.054-2.177,3.083-4.594,3.083-7.255c0-3.627-1.755-6.829-5.26-9.61c-4.234-3.628-9.702-6.62-16.412-8.977
		c-6.71-2.358-13.995-3.536-21.852-3.536c-8.342,0-15.959,1.45-22.85,4.352c-6.892,2.902-12.363,7.135-16.413,12.695
		c-4.051,5.563-6.074,12.273-6.074,20.129c0,5.2,0.844,9.883,2.538,14.055c1.692,4.172,4.2,7.798,7.526,10.881
		c3.324,3.083,7.463,5.622,12.423,7.616c4.956,1.996,10.699,3.478,17.227,4.445c6.891,0.968,12.573,2.328,17.047,4.08
		c4.471,1.754,7.798,3.899,9.974,6.438s3.264,5.622,3.264,9.249c0,3.023-1.15,5.712-3.445,8.069
		c-2.299,2.358-5.322,4.235-9.068,5.622c-3.748,1.391-7.86,2.085-12.331,2.085c-6.651,0-12.242-0.966-16.776-2.901
		c-4.534-1.934-9.099-4.776-13.691-8.524c-1.813-1.45-3.871-2.176-6.166-2.176c-3.023,0-5.531,1.06-7.526,3.174
		c-1.995,2.116-2.992,4.565-2.992,7.345c0,1.693,0.423,3.386,1.27,5.076c0.845,1.695,2.054,3.205,3.627,4.535
		c6.166,5.321,12.633,9.038,19.404,11.152s14.386,3.174,22.851,3.174c8.22,0,15.867-1.513,22.941-4.533
		c7.072-3.021,12.785-7.374,17.137-13.057c4.353-5.682,6.529-12.451,6.529-20.313C982.417,453.705,981.511,448.477,979.698,444.184z
		"/>
</g>
</svg>
